<svg width="129" height="65" viewBox="0 0 129 65" fill="none" xmlns="http://www.w3.org/2000/svg">
<path fill-rule="evenodd" clip-rule="evenodd" d="M70.5075 48.0079C69.754 46.6322 68.3714 46.1225 66.8835 46.1225C64.541 46.1225 62.758 47.4795 62.758 50.1861C62.758 52.8928 64.541 54.2498 66.8835 54.2498C69.2443 54.2498 71.009 52.9112 71.009 50.1861C71.009 49.3442 70.8418 48.618 70.5077 48.0079H70.5075ZM121.443 26.1823C120.51 28.4058 119.578 30.6293 118.645 32.8528C120.51 32.8528 122.376 32.8528 124.241 32.8528C123.308 30.6293 122.376 28.4058 121.443 26.1823H121.443ZM104.571 26.3545C104.571 27.7214 104.571 29.0881 104.571 30.455C106.023 30.455 107.475 30.455 108.927 30.455C110.18 30.455 111.277 29.8391 111.277 28.4048C111.277 26.9467 110.179 26.3545 108.927 26.3545C107.475 26.3545 106.023 26.3545 104.571 26.3545ZM91.2416 26.3545C91.2416 27.7214 91.2416 29.0881 91.2416 30.455C92.6936 30.455 94.1453 30.455 95.5972 30.455C96.8503 30.455 97.9476 29.8391 97.9476 28.4048C97.9476 26.9467 96.8497 26.3545 95.5972 26.3545C94.1453 26.3545 92.6936 26.3545 91.2416 26.3545ZM87.6256 43.322C91.8607 43.322 96.0958 43.322 100.331 43.322C100.331 44.341 100.331 45.36 100.331 46.379C98.7312 46.379 97.1313 46.379 95.5316 46.379C95.5316 49.9363 95.5316 53.4937 95.5316 57.051C94.4961 57.051 93.4606 57.051 92.4251 57.051C92.4251 53.4937 92.4251 49.9363 92.4251 46.379C90.8254 46.379 89.2255 46.379 87.6259 46.379C87.6259 45.36 87.6259 44.341 87.6259 43.322H87.6256ZM75.9887 43.322C79.5663 43.322 83.1439 43.322 86.7215 43.322C86.7215 44.3045 86.7215 45.2867 86.7215 46.2691C84.1794 46.2691 81.6373 46.2691 79.0952 46.2691C79.0952 47.1905 79.0952 48.1119 79.0952 49.0333C81.5387 49.0333 83.9821 49.0333 86.4256 49.0333C86.4256 50.0158 86.4256 50.998 86.4256 51.9804C83.9821 51.9804 81.5387 51.9804 79.0952 51.9804C79.0952 53.6707 79.0952 55.3607 79.0952 57.051C78.0597 57.051 77.0242 57.051 75.9887 57.051C75.9887 52.4747 75.9887 47.8984 75.9887 43.322ZM70.688 43.9262C72.9176 45.1491 74.1477 47.3836 74.1477 50.1867C74.1477 52.9898 72.9176 55.2242 70.688 56.4472C68.4962 57.6493 65.2699 57.6493 63.0782 56.4472C60.8469 55.2234 59.6349 52.9869 59.6349 50.1867C59.6349 47.3865 60.8469 45.1502 63.0782 43.9262C65.2699 42.724 68.4962 42.724 70.688 43.9262ZM51.959 43.0293C53.9353 43.0293 55.9717 43.6124 57.2186 45.171C57.7556 45.842 58.0459 46.6293 58.0896 47.5323C57.0432 47.5323 55.9968 47.5323 54.9503 47.5323C54.713 45.4826 51.2189 45.4197 49.929 46.1137C49.0047 46.6109 48.9991 47.6467 49.6331 48.0999C50.6422 48.8208 54.3459 48.6116 56.4623 49.5095C57.8132 50.0827 58.4181 51.0649 58.4181 52.6579C58.4181 54.6804 57.1992 56.0403 55.5171 56.7583C53.6389 57.56 50.8757 57.5333 49.0084 56.7399C47.2811 56.0059 45.9813 54.6292 45.9102 52.5664C46.9566 52.5664 48.003 52.5664 49.0495 52.5664C49.3633 54.943 53.1329 54.9774 54.5144 54.2322C55.5158 53.692 55.4894 52.5944 54.8431 52.1364C53.5754 51.2379 49.1644 51.9108 47.184 50.1136C46.4444 49.4426 46.0747 48.5273 46.0747 47.3678C46.0747 45.4139 47.2248 44.1757 48.8607 43.542C49.7427 43.2002 50.7755 43.0296 51.959 43.0296V43.0293ZM120.087 24.2681C120.991 24.2681 121.895 24.2681 122.799 24.2681C124.771 28.8444 126.743 33.4207 128.716 37.9971C127.943 37.9971 127.171 37.9971 126.398 37.9971C125.958 36.9474 125.518 35.8981 125.077 34.8487C122.654 34.8487 120.231 34.8487 117.808 34.8487C117.368 35.8983 116.928 36.9477 116.487 37.9971C115.715 37.9971 114.942 37.9971 114.17 37.9971C116.142 33.4207 118.114 28.8444 120.087 24.2681ZM102.402 24.2681C104.642 24.2681 106.883 24.2681 109.124 24.2681C111.455 24.2681 113.479 25.6981 113.479 28.405C113.479 30.8653 111.709 32.3231 109.592 32.4876C110.992 34.324 112.392 36.1604 113.792 37.9968C112.926 37.9968 112.06 37.9968 111.195 37.9968C109.813 36.1663 108.432 34.3357 107.05 32.5052C106.224 32.5052 105.397 32.5052 104.571 32.5052C104.571 34.3357 104.571 36.1663 104.571 37.9968C103.847 37.9968 103.124 37.9968 102.401 37.9968C102.401 33.4205 102.401 28.8441 102.401 24.2678L102.402 24.2681ZM86.327 30.1257C86.327 30.7968 86.327 31.4681 86.327 32.1391C83.6102 32.1391 80.8937 32.1391 78.177 32.1391C78.2007 33.3962 78.2242 34.653 78.2477 35.9101C81.0996 35.9101 83.9515 35.9101 86.8034 35.9101C86.8034 36.6056 86.8034 37.3012 86.8034 37.9968C83.2204 37.9968 79.6372 37.9968 76.0543 37.9968V24.2678C79.61 24.2678 83.1655 24.2678 86.7213 24.2678C86.7213 24.9634 86.7213 25.6589 86.7213 26.3545C83.8968 26.3545 81.0721 26.3545 78.2477 26.3545C78.2242 27.6116 78.2005 28.8684 78.177 30.1254C80.8937 30.1254 83.6102 30.1254 86.327 30.1254V30.1257ZM89.0717 24.2681C91.3125 24.2681 93.5534 24.2681 95.794 24.2681C98.1249 24.2681 100.15 25.6981 100.15 28.405C100.15 30.8653 98.3787 32.3231 96.2619 32.4876C97.6618 34.324 99.0618 36.1604 100.462 37.9968C99.5961 37.9968 98.7304 37.9968 97.8647 37.9968C96.4834 36.1663 95.1019 34.3357 93.7206 32.5052C92.8941 32.5052 92.0673 32.5052 91.2408 32.5052C91.2408 34.3357 91.2408 36.1663 91.2408 37.9968C90.5178 37.9968 89.7945 37.9968 89.0712 37.9968C89.0712 33.4205 89.0712 28.8441 89.0712 24.2678L89.0717 24.2681ZM59.4701 30.5835C60.7467 30.5835 62.0232 30.5835 63.2997 30.5835C63.2997 31.2364 63.2997 31.8893 63.2997 32.5423C62.0232 32.5423 60.7467 32.5423 59.4701 32.5423C59.4701 31.8893 59.4701 31.2364 59.4701 30.5835ZM62.478 24.2681C66.5979 24.2681 70.7181 24.2681 74.838 24.2681C74.838 24.9759 74.838 25.6837 74.838 26.3913C73.1397 26.3913 71.4411 26.3913 69.7428 26.3913C69.7428 30.2598 69.7428 34.1283 69.7428 37.9968C69.0198 37.9968 68.2965 37.9968 67.5732 37.9968C67.5732 34.1283 67.5732 30.2598 67.5732 26.3913C65.8749 26.3913 64.1763 26.3913 62.478 26.3913C62.478 25.6835 62.478 24.9756 62.478 24.2681ZM51.7286 24.0118C53.6095 24.0118 55.5414 24.5832 56.7171 26.0895C57.2266 26.7424 57.5034 27.5081 57.5471 28.3869C56.8128 28.3869 56.0789 28.3869 55.3446 28.3869C55.0444 25.7101 50.8829 25.5542 49.2633 26.538C48.6605 26.904 48.3592 27.4044 48.3592 28.039C48.3592 29.2856 49.5379 29.572 50.759 29.7597C51.6574 29.8999 52.5559 30.0404 53.4544 30.1806C54.9511 30.4131 56.7587 30.8069 57.4484 32.0202C57.7223 32.5023 57.8593 33.1216 57.8593 33.8782C57.8593 35.7799 56.6987 37.0551 55.1063 37.7131C53.3205 38.4511 50.7131 38.442 48.9263 37.6582C47.2504 36.9229 46.0205 35.5411 45.9267 33.5303C46.6609 33.5303 47.3949 33.5303 48.1291 33.5303C48.3718 35.5571 50.3849 36.2761 52.0904 36.2761C53.5394 36.2761 55.6899 35.8549 55.6899 34.1344C55.6899 32.7761 54.4766 32.5151 53.1094 32.3223C52.2219 32.1941 51.3343 32.0661 50.4468 31.9379C48.0777 31.5921 46.1898 30.7538 46.1898 28.1304C46.1898 26.3129 47.2763 25.1305 48.8031 24.5152C49.636 24.1795 50.611 24.0118 51.7286 24.0118Z" fill="#1A1A1A"/>
<path fill-rule="evenodd" clip-rule="evenodd" d="M31.3952 57.3484V37.4698V13.1343L26.4648 8.20386V52.3393L31.3952 57.3484Z" fill="#FFA825"/>
<path fill-rule="evenodd" clip-rule="evenodd" d="M22.7172 49.1445V29.2659V4.93013L17.7871 0V44.1355L22.7172 49.1445Z" fill="black"/>
<path fill-rule="evenodd" clip-rule="evenodd" d="M13.8823 40.9601V19.0897L8.95215 14.1595V35.9511L13.8823 40.9601Z" fill="#FFA825"/>
<path fill-rule="evenodd" clip-rule="evenodd" d="M0 27.9641L5.00904 33.328V23.3888L0 27.9641Z" fill="black"/>
<path fill-rule="evenodd" clip-rule="evenodd" d="M35.1025 61.3963V29.8269V11.8079L40.0327 8.20386V65L35.1025 61.3963Z" fill="black"/>
</svg>
