<svg width="113" height="70" viewBox="0 0 113 70" fill="none" xmlns="http://www.w3.org/2000/svg">
<path fill-rule="evenodd" clip-rule="evenodd" d="M10.4352 10.3503C10.4352 11.0573 12.5561 11.0008 12.443 10.322C12.6127 9.89785 10.4352 9.5585 10.4352 10.3503ZM30.0895 61.4232C35.1232 61.4232 35.0384 54.5513 33.2002 52.402C31.3055 50.1962 25.8475 50.2245 25.8475 56.2198C25.8475 59.1609 27.1767 61.4232 30.0895 61.4232ZM5.62763 49.5741C8.25764 51.8365 18.7211 50.1397 18.7211 57.6338C18.7211 62.6393 14.0832 64.8168 9.38882 64.8168C6.19323 64.8168 2.57344 64.1381 0.0282796 62.2716L1.3857 58.7649C3.76118 60.4052 6.5043 61.0556 9.38882 61.0556C11.8774 61.0556 14.366 60.3769 14.366 57.8883C14.366 55.9087 12.4713 55.428 10.5766 55.0603C6.02355 54.1837 0.509032 53.7595 0.509032 47.7925C0.509032 39.8459 12.7824 38.7147 18.0706 43.2677L16.6567 46.6613C14.1963 44.5403 10.0392 43.7485 7.23957 44.7666C4.41161 45.7846 4.43989 48.4995 5.68419 49.5741H5.62763ZM34.6425 48.7257C40.0156 51.6951 40.0156 60.8011 34.6425 63.7704C33.3699 64.4774 31.8711 64.8168 30.1177 64.8168C21.6056 64.8168 20.1351 56.2198 22.6237 51.6951C25.0274 47.3117 31.1075 46.7461 34.6425 48.7257ZM55.5411 43.2395H59.7547V48.0187H65.0713V51.384H59.7547V58.058C59.7547 61.5646 62.4413 61.5929 65.0147 60.8294L65.6369 64.0532L62.0737 64.8168C57.662 64.8168 55.3997 62.611 55.3997 58.2559V54.6644V51.384V51.2709H52.2324H47.7642V54.6361V64.4774H43.4657V51.2709H40.2701V47.9904H43.494C43.5505 45.926 43.8899 44.201 45.3604 42.8153C47.3117 40.9771 50.0266 40.9205 52.9394 40.7509L53.2504 44.0596C50.6204 44.201 47.7925 44.003 47.7925 47.3966V47.9904H52.2606H52.4586H55.5694V43.2112L55.5411 43.2395ZM97.8756 33.9355C97.5928 35.2929 96.3202 36.9331 95.0759 37.4422C94.3689 35.7171 93.6054 32.5498 91.2016 32.7195C90.5795 32.776 89.8442 33.0588 89.618 33.681C89.1655 34.9536 90.9754 35.6323 91.4561 36.6503C91.9086 37.5836 91.7106 39.0824 91.7955 39.3934C89.4766 41.1468 88.2888 42.9567 86.7334 44.1161C84.8387 45.5584 82.4915 46.4068 80.116 46.5482L79.4373 46.3219C77.7123 45.219 77.9102 42.2214 76.6376 41.3165C75.5913 40.5812 74.3753 41.8538 74.5732 43.5788C74.6864 44.6534 75.3085 45.5867 75.8458 46.4916C74.0925 46.7179 72.6785 47.9056 71.9998 49.5458C70.0485 48.8388 69.1436 47.9056 68.3234 47.538C66.8812 46.8593 66.0894 48.3298 67.164 49.9134C68.0689 51.2709 69.8788 52.3738 71.5756 52.1758C71.5756 52.2041 71.5756 52.2324 71.5756 52.2889C70.3878 52.8828 69.6243 52.4869 69.7091 52.9394C69.794 53.4201 71.3776 52.8545 71.6322 52.7414C71.6604 52.8262 71.6604 52.9394 71.6887 53.0242C70.1333 54.2119 69.1436 54.1837 69.3132 54.5796C69.5395 55.0603 71.519 53.6746 71.8301 53.4767C72.3391 55.0603 73.0179 54.5513 72.6785 55.7956C72.1977 57.5206 72.5654 59.783 73.3572 59.274C74.0925 58.7649 74.7712 58.1428 75.3085 57.4358C76.4397 58.1428 77.6274 58.7932 78.9 59.1326C81.4734 59.8396 84.2448 59.6699 86.7617 58.8215C90.2401 57.6338 96.5182 53.1656 98.4977 49.8286L99.7703 47.849L100.534 51.2991C100.76 56.135 93.8033 60.3769 89.7594 61.8757C87.4122 62.7524 84.5276 63.7422 83.5096 66.3156C82.5481 68.7759 84.4994 70.9534 86.9031 69.5677C88.2323 68.8042 89.1372 67.4185 90.1553 66.259C92.559 63.4876 95.8112 63.7704 99.1482 61.4515C102.089 59.4154 104.182 56.0501 103.616 52.402C103.192 49.772 101.269 47.34 100.76 44.5686C100.308 42.1648 101.128 39.0541 101.184 36.1413C101.495 36.2544 101.806 36.3675 102.146 36.4524C104.945 36.8483 107.604 35.7454 108.594 33.0588V36.1979H112.44V26.2434C112.44 21.4359 109.81 19.3715 105.143 19.3715C102.796 19.3715 99.7138 20.0785 97.7342 21.3794L98.9219 24.3487C100.76 23.2741 102.711 22.6519 104.719 22.6519C107.038 22.6519 108.282 23.3872 108.282 25.7344V26.3283C103.645 26.3 96.9989 26.1303 96.9989 31.3338C96.9989 32.069 97.112 32.5215 97.2252 32.8326C97.3948 33.2002 97.5928 33.5113 97.8473 33.8224L97.8756 33.9355ZM75.7327 51.1295C75.6196 50.677 74.2622 50.1114 74.6015 51.5254C74.7429 52.0627 75.761 51.2709 75.7327 51.1295ZM75.1954 53.307C75.6196 54.3251 74.0642 54.9755 73.64 53.9574C73.2158 52.9394 74.7712 52.2889 75.1954 53.307ZM75.5347 53.3353C74.9691 51.9496 72.8765 52.8262 73.442 54.2119C74.0076 55.5976 76.1003 54.721 75.5347 53.3353ZM76.7225 52.3455C77.2881 53.7312 79.3808 52.8545 78.8152 51.4688C78.2496 50.0831 76.1569 50.9598 76.7225 52.3455ZM78.4758 51.4688C78.9 52.4869 77.3446 53.1373 76.9204 52.1193C76.4962 51.1012 78.0516 50.4508 78.4758 51.4688ZM13.9701 6.87194C12.3299 6.87194 12.3299 9.36054 13.9701 9.36054C15.6103 9.36054 15.6103 6.87194 13.9701 6.87194ZM14.9033 8.11624C14.9033 9.36054 13.0086 9.36054 13.0086 8.11624C13.0086 6.87194 14.9033 6.87194 14.9033 8.11624ZM7.91828 8.11624C7.91828 9.75645 10.4069 9.75645 10.4069 8.11624C10.4069 6.47602 7.91828 6.47602 7.91828 8.11624ZM9.16258 7.18301C10.4069 7.18301 10.4069 9.07774 9.16258 9.07774C7.91828 9.07774 7.91828 7.18301 9.16258 7.18301ZM56.0501 23.1044C54.8624 23.8397 54.2402 25.1971 54.014 26.6111H62.4413C62.1585 21.945 57.9448 21.9167 56.0501 23.1044ZM103.956 29.0997C102.457 29.3259 101.241 29.8915 101.241 31.1924C101.241 34.8687 108.282 34.388 108.282 29.5522V28.9583H106.982C106.133 28.9583 105.002 28.93 103.956 29.0997ZM16.0628 24.6315C20.0502 27.1201 19.6826 33.4265 14.3095 35.7454C12.8955 36.3393 11.2553 36.6503 9.36054 36.6503C6.16495 36.6503 2.54516 35.9716 0 34.1052L1.35742 30.5985C3.7329 32.2387 6.47602 32.8891 9.36054 32.8891C11.8491 32.8891 14.3377 32.2104 14.3377 29.7218C14.3377 27.7423 12.443 27.2615 10.5483 26.8939C5.99527 26.0172 0.480753 25.593 0.480753 19.626C0.480753 15.0165 4.55301 13.659 4.77925 13.4328C4.94893 13.0652 5.14688 12.6975 5.31656 12.3299C5.4014 11.9905 5.42968 11.6512 5.48624 11.3118C4.32677 11.1704 3.13903 11.3967 2.14925 11.9905C1.92301 12.1319 1.69677 11.7643 1.92301 11.6229C2.99763 11.0008 4.27022 10.7462 5.51452 10.8876C5.51452 10.7462 5.5428 10.6048 5.5428 10.4352C4.1571 10.2089 2.79968 10.1524 1.44226 10.52C1.18774 10.6048 1.04634 10.1806 1.32914 10.0958C2.71484 9.69989 4.18538 9.67161 5.57108 9.98269C5.59936 9.36054 5.59935 8.76667 5.62763 8.1728C3.25215 7.21129 2.3472 4.60957 2.88452 4.58129L4.07226 4.72269C7.83344 5.03376 8.34247 3.56323 11.1704 3.11075C12.3299 2.9128 13.5742 2.88452 14.6488 3.30871C16.1759 1.66849 15.6386 2.14925 16.5435 0.254516L16.9677 0C19.3149 2.51688 17.1374 5.85387 16.996 5.91043C17.4485 7.26785 17.1657 8.48387 17.3637 9.84129C18.6645 9.36054 20.0502 9.21914 21.4359 9.44538C21.4925 9.44538 21.549 9.47366 21.5773 9.53022C21.6056 9.58677 21.6056 9.64333 21.6056 9.69989V9.72817C21.5773 9.81301 21.4925 9.89785 21.3794 9.86957C20.0785 9.67161 18.6928 9.81301 17.4485 10.2938C17.4768 10.4352 17.5051 10.5483 17.5333 10.6897C18.5514 10.52 19.5977 10.6331 20.5592 11.0008C20.8703 11.1139 20.6724 11.4815 20.4461 11.4249C19.5412 11.0856 18.5797 10.9725 17.6465 11.1422C18.0424 12.5844 18.0424 13.2348 16.5435 14.0549C17.1091 14.366 17.5899 14.7337 18.0706 15.1296L16.6567 18.5231C14.1963 16.4022 10.0392 15.6103 7.23957 16.6284C5.65591 17.194 4.60957 18.4383 4.94893 20.1351C6.56086 18.4948 10.0392 20.7006 8.73839 22.5388L11.8491 23.161C12.4147 20.8703 16.8546 21.9732 16.289 24.2639C16.2608 24.4053 16.2042 24.5467 16.1194 24.6598L16.0628 24.6315ZM88.204 27.714V36.311H83.8206V19.824H87.8646V23.3589C88.6565 20.9269 90.5512 19.7391 93.2095 19.5412L94.7648 19.3998L95.0759 23.2175C92.1631 23.472 88.204 23.3589 88.204 27.6857V27.714ZM22.5105 25.6496H32.4649V29.0997H22.5105V25.6496ZM49.8569 28.0816C49.8569 18.5231 61.7626 16.8546 65.0996 23.4155C66.0611 25.3385 66.0611 27.007 66.0611 29.2128H54.014C54.1271 29.9198 54.2968 30.5419 54.5513 30.9944C56.2198 34.3031 61.9605 33.681 64.534 31.7014L65.7217 34.6425C63.9967 35.9999 61.3667 36.6503 59.1891 36.6503C53.6463 36.6503 49.8852 33.7093 49.8852 28.0816H49.8569ZM42.4476 29.8915C42.4476 33.3982 45.1342 33.4265 47.7076 32.6629C47.9056 33.7375 48.1318 34.8122 48.3298 35.8868C47.1986 36.1979 45.2473 36.6503 44.7666 36.6503C40.3549 36.6503 38.0926 34.4445 38.0926 30.0895V23.2175H34.9253V19.8523H38.234V15.073H42.4476V19.8523H47.7642V23.2175H42.4476V29.8915ZM79.1828 19.5695L80.7382 19.4281L81.0493 23.2458C78.1365 23.5003 74.1773 23.3872 74.1773 27.714V36.311H69.794V19.824H73.838V23.3589C74.6298 20.9269 76.5245 19.7391 79.1828 19.5412V19.5695Z" fill="#FFA825"/>
</svg>
